<svg id="question-circle-solid" xmlns="http://www.w3.org/2000/svg" width="26.767" height="26.767" viewBox="0 0 26.767 26.767">
  <path id="question-circle-solid-2" data-name="question-circle-solid" d="M34.767,21.383A13.383,13.383,0,1,1,21.383,8,13.383,13.383,0,0,1,34.767,21.383ZM21.742,12.425a6.99,6.99,0,0,0-6.29,3.441.648.648,0,0,0,.147.877l1.873,1.42a.647.647,0,0,0,.9-.115c.964-1.223,1.625-1.932,3.092-1.932,1.1,0,2.466.71,2.466,1.779,0,.808-.667,1.223-1.756,1.834-1.269.712-2.949,1.6-2.949,3.813v.216a.648.648,0,0,0,.648.648h3.022a.648.648,0,0,0,.648-.648v-.072c0-1.536,4.489-1.6,4.489-5.756C28.031,14.8,24.784,12.425,21.742,12.425Zm-.359,13.383a2.482,2.482,0,1,0,2.482,2.482A2.485,2.485,0,0,0,21.383,25.808Z" transform="translate(-8 -8)" fill="rgba(255,255,255,0.5)"/>
</svg>
