<svg id="Speaker" xmlns="http://www.w3.org/2000/svg" width="120" height="120" viewBox="0 0 120 120">
  <path id="volume-up-solid" d="M21.279,21.388l-8.8,8.713H2.375A2.362,2.362,0,0,0,0,32.453V46.559A2.363,2.363,0,0,0,2.375,48.91h10.1l8.8,8.713a2.38,2.38,0,0,0,4.054-1.662V23.051A2.38,2.38,0,0,0,21.279,21.388Zm23.089-5a2.408,2.408,0,0,0-3.316.681,2.356,2.356,0,0,0,.688,3.283,22.762,22.762,0,0,1,0,38.318,2.355,2.355,0,0,0-.688,3.282,2.413,2.413,0,0,0,3.316.681,27.477,27.477,0,0,0,0-46.244ZM47.5,39.506A18.044,18.044,0,0,0,39.012,24.2a2.37,2.37,0,1,0-2.544,4,13.316,13.316,0,0,1,0,22.613,2.37,2.37,0,1,0,2.544,4A18.043,18.043,0,0,0,47.5,39.506Zm-14.029-7.53a2.4,2.4,0,0,0-3.227.926,2.341,2.341,0,0,0,.935,3.194,3.843,3.843,0,0,1,0,6.82,2.341,2.341,0,0,0-.935,3.194,2.391,2.391,0,0,0,3.227.926,8.524,8.524,0,0,0,0-15.06Z" transform="translate(34 20.005)" fill="#fff"/>
  <g id="Rectangle_2" data-name="Rectangle 2" fill="none" stroke="#fff" stroke-width="2">
    <rect width="120" height="120" rx="9" stroke="none"/>
    <rect x="1" y="1" width="118" height="118" rx="8" fill="none"/>
  </g>
</svg>
