<svg xmlns="http://www.w3.org/2000/svg" width="27" height="27" viewBox="0 0 27 27">
  <path id="times-circle-solid" d="M21.5,8A13.5,13.5,0,1,0,35,21.5,13.5,13.5,0,0,0,21.5,8Zm6.619,17.044a.654.654,0,0,1,0,.925l-2.156,2.15a.654.654,0,0,1-.925,0L21.5,24.548l-3.544,3.571a.654.654,0,0,1-.925,0l-2.15-2.156a.654.654,0,0,1,0-.925L18.452,21.5l-3.571-3.544a.654.654,0,0,1,0-.925l2.156-2.156a.654.654,0,0,1,.925,0L21.5,18.452l3.544-3.571a.654.654,0,0,1,.925,0l2.156,2.156a.654.654,0,0,1,0,.925L24.548,21.5Z" transform="translate(-8 -8)" fill="#fff"/>
</svg>
